<svg width="47" height="48" viewBox="0 0 47 48" fill="none" xmlns="http://www.w3.org/2000/svg">
<path d="M24.9963 18.7145L24.9963 18.8266L25.0377 18.9252C27.0618 23.7488 26.4404 29.6029 25.2733 34.3173C24.6922 36.6648 23.9815 38.7066 23.416 40.1614C23.1334 40.8883 22.8875 41.4676 22.7129 41.8638C22.7086 41.8736 22.7043 41.8833 22.7001 41.8929C22.6837 41.8796 22.6669 41.866 22.6498 41.852C22.3306 41.5926 21.8694 41.2141 21.3022 40.7382C20.1677 39.7864 18.6103 38.4461 16.9188 36.8926C13.5249 33.7756 9.63074 29.8353 7.5082 26.4634C5.41434 23.137 3.76742 19.4147 3.5277 15.9549C3.40851 14.2346 3.63825 12.5963 4.31909 11.102C4.99883 9.61018 6.14635 8.22186 7.92106 7.02639C11.4207 4.66901 15.6746 5.02159 19.0879 7.28323C22.4968 9.542 24.9963 13.6638 24.9963 18.7145Z" fill="white" stroke="black"/>
<path d="M29.3552 36.9814C33.0569 33.7419 37.3687 29.594 39.9136 25.8954C42.0841 22.6097 43.1814 18.758 42.9593 15.3169C42.7387 11.8982 41.2225 8.8883 38.1313 7.1509L38.1312 7.15086C34.4017 5.05404 30.9503 5.21699 28.0024 7.25728C25.043 9.30549 22.5502 13.2768 20.8489 18.896C20.8395 22.7816 21.4609 28.7432 22.092 33.7738C22.4091 36.301 22.7274 38.5837 22.9664 40.2346C23.0733 40.9726 23.1642 41.5842 23.2322 42.0347C23.5702 41.7726 24.035 41.4085 24.5974 40.9591C25.822 39.9803 27.5084 38.5975 29.3552 36.9814Z" fill="white" stroke="black"/>
<rect x="21.124" y="10.0234" width="9.88306" height="8.78183" transform="rotate(49.9664 21.124 10.0234)" fill="white"/>
<rect x="23.8472" y="17.4282" width="8.36945" height="8.78183" transform="rotate(45.5258 23.8472 17.4282)" fill="white"/>
<rect x="21.9031" y="23.2622" width="8.36945" height="8.78183" transform="rotate(45.5258 21.9031 23.2622)" fill="white"/>
<path d="M23.0249 28.0005L30 35.5L23 42L15.9996 34.898L23.0249 28.0005Z" fill="white"/>
</svg>
