<svg width="28" height="29" viewBox="0 0 28 29" fill="none" xmlns="http://www.w3.org/2000/svg">
<path d="M14.6995 11.182L14.6995 11.2941L14.7408 11.3927C15.9162 14.1937 15.5604 17.6119 14.8712 20.396C14.529 21.7784 14.1103 22.9815 13.777 23.8389C13.6587 24.1433 13.5513 24.4035 13.4623 24.6121C13.2897 24.4707 13.0723 24.2912 12.8193 24.0789C12.1465 23.5145 11.2231 22.7198 10.2203 21.7988C8.20377 19.9467 5.90586 17.6193 4.65904 15.6385C3.4211 13.6719 2.46358 11.4945 2.32483 9.49203C2.25612 8.50043 2.38924 7.56884 2.77362 6.72523C3.15689 5.88404 3.80811 5.09033 4.83392 4.39933C6.83575 3.05087 9.28727 3.24193 11.2726 4.55739C13.2535 5.86998 14.6995 8.26097 14.6995 11.182Z" fill="white" stroke="black"/>
<path d="M17.3563 21.8483C19.5546 19.9245 22.1014 17.4727 23.5998 15.2956C24.8696 13.3727 25.5033 11.1301 25.3751 9.1442C25.2484 7.18064 24.3837 5.47204 22.6218 4.48182L22.6218 4.48179C20.4645 3.26892 18.4841 3.36621 16.7885 4.53974C15.0812 5.72135 13.6223 8.02505 12.6189 11.3234C12.617 13.616 12.9825 17.1249 13.3559 20.1007C13.544 21.6007 13.733 22.9556 13.8749 23.9356C13.9134 24.2021 13.9485 24.4408 13.9792 24.6471C14.1387 24.522 14.3254 24.3746 14.5349 24.2071C15.2612 23.6267 16.2613 22.8066 17.3563 21.8483Z" fill="white" stroke="black"/>
<rect x="11.9961" y="6" width="5.87309" height="5.21868" transform="rotate(49.9664 11.9961 6)" fill="white"/>
<rect x="14.209" y="10.4004" width="4.97361" height="5.21868" transform="rotate(45.5258 14.209 10.4004)" fill="white"/>
<rect x="13.0527" y="13.8672" width="4.97361" height="5.21868" transform="rotate(45.5258 13.0527 13.8672)" fill="white"/>
<rect x="14.209" y="16.1777" width="5.59177" height="5.85065" transform="rotate(45.5258 14.209 16.1777)" fill="white"/>
</svg>
