<svg width="31" height="50" viewBox="0 0 37 50" fill="none" xmlns="http://www.w3.org/2000/svg">
<path d="M23.223 40.4328L16.3542 40.3934C15.1372 40.3541 12.6315 40.6465 11.501 40.101C10.9315 39.9034 10.3867 39.516 9.89663 39.1919C8.8533 38.299 8.30773 37.0258 8.74222 35.4454C9.52472 33.3826 11.1213 31.9596 12.339 30.2048C12.9872 29.2564 13.5089 28.2995 13.975 27.3272C14.3069 26.6319 14.6078 25.9281 14.908 25.2089C14.6078 24.4897 14.3076 23.7859 13.975 23.0906C13.5089 22.1183 12.9872 21.1621 12.339 20.2053C11.122 18.4505 9.52472 17.0359 8.74222 14.9725C8.30773 13.3836 8.8526 12.1111 9.89663 11.2259C10.3867 10.8941 10.9322 10.5067 11.501 10.3091C12.6315 9.77129 15.1372 10.056 16.3542 10.0244L23.223 9.97729C29.3803 9.94565 34.9372 6.09644 36.9529 0.278684C36.9691 0.239313 36.9845 0.199942 37 0.159868C30.115 -0.0376902 23.2385 -0.0376898 16.3535 0.081126C15.5077 0.112763 14.0615 0.0888591 13.2235 0.136667C3.35051 0.43687 -4.2769 10.8315 2.7023 19.2737C4.48875 21.2655 6.61478 22.4276 8.91517 23.6292C9.66603 24.0875 10.4169 24.6331 11.16 25.2103C10.4169 25.7798 9.66603 26.3247 8.91517 26.7831C6.61478 27.9846 4.48875 29.1467 2.7023 31.1385C-4.27761 39.5807 3.35051 49.9831 13.2235 50.2755C14.0615 50.3227 15.5077 50.2994 16.3535 50.3311C23.2385 50.4499 30.115 50.4576 37 50.2601C36.9845 50.213 36.9684 50.1729 36.9529 50.1335C34.9372 44.3137 29.3803 40.4645 23.223 40.4328Z" fill="#231818"/>
<path d="M30.5116 25.2074C30.5116 27.8853 27.9419 29.8145 25.3709 29.0664L16.5736 25.2109H16.4766L25.3765 21.3462C27.9462 20.6031 30.5116 22.5315 30.5116 25.2074Z" fill="#231818"/>
</svg>
